<svg xmlns="http://www.w3.org/2000/svg" xmlns:xlink="http://www.w3.org/1999/xlink" viewBox="0 0 1356 487.08"><defs><style>.cls-1{fill:#412415;}.cls-1,.cls-12,.cls-13,.cls-14,.cls-15,.cls-16,.cls-17,.cls-18,.cls-19,.cls-2,.cls-20,.cls-21,.cls-22,.cls-23,.cls-24,.cls-25,.cls-26,.cls-28,.cls-29,.cls-3,.cls-30,.cls-31,.cls-32,.cls-33,.cls-34,.cls-35,.cls-36,.cls-37,.cls-38,.cls-39,.cls-4,.cls-40,.cls-41,.cls-42,.cls-43,.cls-44,.cls-45,.cls-46,.cls-47,.cls-48,.cls-49,.cls-5,.cls-7{stroke:#020202;}.cls-1,.cls-2,.cls-3,.cls-4{stroke-miterlimit:10;}.cls-1,.cls-2{stroke-width:2px;}.cls-2{fill:#fbb03d;}.cls-3,.cls-5{fill:#b5b5b5;}.cls-3{stroke-width:3px;}.cls-4{fill:#1a1a1a;stroke-width:4px;}.cls-12,.cls-13,.cls-14,.cls-15,.cls-18,.cls-19,.cls-20,.cls-21,.cls-22,.cls-23,.cls-28,.cls-29,.cls-30,.cls-32,.cls-33,.cls-34,.cls-35,.cls-36,.cls-37,.cls-38,.cls-39,.cls-44,.cls-45,.cls-46,.cls-47,.cls-5{stroke-miterlimit:10;}.cls-12,.cls-13,.cls-14,.cls-15,.cls-28,.cls-29,.cls-30,.cls-32,.cls-33,.cls-34,.cls-35,.cls-36,.cls-37,.cls-38,.cls-39,.cls-44,.cls-45,.cls-46,.cls-47,.cls-5{stroke-width:3px;}.cls-6{fill:#ccc;}.cls-7{fill:#424143;}.cls-31,.cls-40,.cls-41,.cls-43,.cls-7{stroke-miterlimit:10;stroke-width:3px;}.cls-8{fill:#3c54a4;}.cls-9{fill:#71cddd;}.cls-10,.cls-27{fill:#231f20;stroke:#231f20;}.cls-10{stroke-width:45px;}.cls-11{fill:#fbb042;}.cls-12{fill:url(#linear-gradient);}.cls-13{fill:url(#linear-gradient-2);}.cls-14{fill:url(#linear-gradient-3);}.cls-15{fill:url(#linear-gradient-4);}.cls-16{fill:#603b17;stroke-miterlimit:10;stroke-width:5px;}.cls-17{stroke-miterlimit:10;stroke-width:5px;fill:url(#linear-gradient-5);}.cls-18,.cls-19,.cls-20,.cls-21,.cls-22{stroke-width:5px;}.cls-18{fill:url(#linear-gradient-6);}.cls-19{fill:url(#linear-gradient-7);}.cls-20{fill:url(#linear-gradient-8);}.cls-21{fill:url(#linear-gradient-9);}.cls-22{fill:#020202;}.cls-23{fill:#801519;stroke-width:2px;}.cls-24,.cls-25,.cls-26{fill:#603b1a;}.cls-24{stroke-miterlimit:10;stroke-width:4px;}.cls-25{stroke-miterlimit:10;stroke-width:4px;}.cls-26{stroke-miterlimit:10;stroke-width:4px;}.cls-27{stroke-width:50px;}.cls-28{fill:#6e6f72;}.cls-29{fill:#046938;}.cls-30{fill:#333;}.cls-31,.cls-45{fill:#828282;}.cls-32{fill:url(#linear-gradient-10);}.cls-33{fill:url(#linear-gradient-11);}.cls-34{fill:url(#linear-gradient-12);}.cls-35{fill:url(#linear-gradient-13);}.cls-36{fill:url(#linear-gradient-14);}.cls-37{fill:url(#linear-gradient-15);}.cls-38{fill:url(#linear-gradient-16);}.cls-39{fill:url(#linear-gradient-17);}.cls-40{fill:url(#linear-gradient-18);}.cls-41{fill:url(#linear-gradient-19);}.cls-42{stroke-miterlimit:10.02;stroke-width:3.01px;fill:url(#linear-gradient-20);}.cls-43{fill:url(#linear-gradient-21);}.cls-44{fill:#fff;}.cls-46{fill:#c3996c;}.cls-47,.cls-48{fill:#e5ac41;}.cls-48,.cls-49{stroke-miterlimit:10;stroke-width:3px;}.cls-49{fill:#f9c75f;}</style><linearGradient id="linear-gradient" x1="-239.4" y1="7251.85" x2="-388.34" y2="7334.5" gradientTransform="matrix(1, 0, 0, -1, 521.85, 7565.52)" gradientUnits="userSpaceOnUse"><stop offset="0" stop-color="#fff"/><stop offset="0.45" stop-color="#fff"/><stop offset="0.61" stop-color="#f7f7f6"/><stop offset="0.72" stop-color="#ebebeb"/><stop offset="0.81" stop-color="#dbdada"/><stop offset="0.89" stop-color="#c6c4c4"/><stop offset="0.96" stop-color="#acaaab"/><stop offset="1" stop-color="#989697"/></linearGradient><linearGradient id="linear-gradient-2" x1="-177.32" y1="7236.17" x2="-176.3" y2="7354.08" xlink:href="#linear-gradient"/><linearGradient id="linear-gradient-3" x1="-357.21" y1="7289.08" x2="-240.41" y2="7289.08" xlink:href="#linear-gradient"/><linearGradient id="linear-gradient-4" x1="-256.61" y1="7280.75" x2="-144.81" y2="7280.75" xlink:href="#linear-gradient"/><linearGradient id="linear-gradient-5" x1="382.23" y1="7358.98" x2="486.61" y2="7358.98" gradientTransform="matrix(1, 0.08, 0.08, -1, -529.42, 7549.42)" gradientUnits="userSpaceOnUse"><stop offset="0" stop-color="#a97d51"/><stop offset="0.03" stop-color="#a67a4f"/><stop offset="0.48" stop-color="#6e4c30"/><stop offset="0.82" stop-color="#4a301d"/><stop offset="1" stop-color="#3c2517"/></linearGradient><linearGradient id="linear-gradient-6" x1="915.48" y1="7408.92" x2="1031.54" y2="7408.92" gradientTransform="matrix(0.84, -0.13, -0.15, -0.97, 778.11, 7627.55)" gradientUnits="userSpaceOnUse"><stop offset="0" stop-color="#fff"/><stop offset="0.01" stop-color="#f7f8f9"/><stop offset="0.09" stop-color="#c3c3cc"/><stop offset="0.18" stop-color="#9494a5"/><stop offset="0.27" stop-color="#6d6d83"/><stop offset="0.36" stop-color="#4d4c67"/><stop offset="0.45" stop-color="#343251"/><stop offset="0.55" stop-color="#212042"/><stop offset="0.65" stop-color="#161539"/><stop offset="0.77" stop-color="#141437"/></linearGradient><linearGradient id="linear-gradient-7" x1="905.16" y1="7333.46" x2="905.16" y2="7286.13" gradientTransform="matrix(0.99, -0.15, -0.15, -0.99, 700.57, 7660.34)" gradientUnits="userSpaceOnUse"><stop offset="0" stop-color="#fff"/><stop offset="0.05" stop-color="#f7f8f8"/><stop offset="0.25" stop-color="#dbdada"/><stop offset="0.45" stop-color="#c6c5c5"/><stop offset="0.65" stop-color="#b9b9b9"/><stop offset="0.84" stop-color="#b5b5b5"/></linearGradient><linearGradient id="linear-gradient-8" x1="915.47" y1="7307.87" x2="915.47" y2="7270.93" xlink:href="#linear-gradient-7"/><linearGradient id="linear-gradient-9" x1="927.95" y1="7333.42" x2="927.95" y2="7285.97" xlink:href="#linear-gradient-7"/><linearGradient id="linear-gradient-10" x1="381.58" y1="7489.14" x2="381.58" y2="7558.98" gradientTransform="matrix(1, -0.06, -0.06, -1, 850.98, 7624.26)" gradientUnits="userSpaceOnUse"><stop offset="0" stop-color="#ccc"/><stop offset="0.17" stop-color="#bdbdbd"/><stop offset="0.5" stop-color="#bcbcbb"/><stop offset="0.62" stop-color="#b5b5b5"/><stop offset="0.7" stop-color="#aaa"/><stop offset="0.77" stop-color="#989798"/><stop offset="0.83" stop-color="#838383"/><stop offset="0.88" stop-color="#676767"/><stop offset="0.93" stop-color="#474747"/><stop offset="0.97" stop-color="#222"/><stop offset="1" stop-color="#010101"/></linearGradient><linearGradient id="linear-gradient-11" x1="434.05" y1="7489.12" x2="434.05" y2="7558.98" xlink:href="#linear-gradient-10"/><linearGradient id="linear-gradient-12" x1="382.62" y1="7508.29" x2="382.62" y2="7556.83" gradientTransform="matrix(1, -0.06, -0.06, -1, 850.98, 7624.26)" gradientUnits="userSpaceOnUse"><stop offset="0" stop-color="#e5ac41"/><stop offset="0.24" stop-color="#ae8231"/><stop offset="1" stop-color="#010101"/></linearGradient><linearGradient id="linear-gradient-13" x1="432.22" y1="7508.8" x2="432.22" y2="7557.33" xlink:href="#linear-gradient-12"/><linearGradient id="linear-gradient-14" x1="407.28" y1="7499.62" x2="407.28" y2="7571.47" gradientTransform="matrix(1, -0.06, -0.06, -1, 850.98, 7624.26)" gradientUnits="userSpaceOnUse"><stop offset="0" stop-color="#e5ac41"/><stop offset="0.15" stop-color="#e1a940"/><stop offset="0.28" stop-color="#d7a13d"/><stop offset="0.41" stop-color="#c39235"/><stop offset="0.54" stop-color="#aa802f"/><stop offset="0.66" stop-color="#896728"/><stop offset="0.78" stop-color="#60481c"/><stop offset="0.9" stop-color="#302614"/><stop offset="1" stop-color="#010101"/></linearGradient><linearGradient id="linear-gradient-15" x1="407.42" y1="7495.56" x2="407.42" y2="7502.48" xlink:href="#linear-gradient-12"/><linearGradient id="linear-gradient-16" x1="407.42" y1="7508.6" x2="407.42" y2="7515.53" xlink:href="#linear-gradient-12"/><linearGradient id="linear-gradient-17" x1="407.42" y1="7520.05" x2="407.42" y2="7526.97" xlink:href="#linear-gradient-12"/><linearGradient id="linear-gradient-18" x1="407.43" y1="7532.82" x2="407.43" y2="7539.23" gradientTransform="matrix(1, 0, 0, -1, 366.46, 7613.64)" xlink:href="#linear-gradient-12"/><linearGradient id="linear-gradient-19" x1="407.3" y1="7543.74" x2="407.3" y2="7549.44" gradientTransform="matrix(1, 0, 0, -1, 365.78, 7613.68)" xlink:href="#linear-gradient-12"/><linearGradient id="linear-gradient-20" x1="384.32" y1="7543.64" x2="384.32" y2="7548.2" gradientTransform="matrix(1, 0, 0, -1, 388.03, 7622)" xlink:href="#linear-gradient-12"/><linearGradient id="linear-gradient-21" x1="407.31" y1="7559.44" x2="407.31" y2="7562.1" gradientTransform="matrix(1, 0, 0, -1, 364.86, 7613.7)" xlink:href="#linear-gradient-12"/></defs><g id="Layer_2" data-name="Layer 2"><g id="Layer_1-2" data-name="Layer 1"><g id="Layer_3" data-name="Layer 3"><rect class="cls-1" x="648.38" y="55.34" width="9.63" height="358.05" rx="1.82" transform="matrix(0.94, -0.33, 0.33, 0.94, -40.75, 229.18)"/><rect class="cls-2" x="588.89" y="65.6" width="12.47" height="4.92" rx="0.63" transform="translate(10.97 200.62) rotate(-19.31)"/><rect class="cls-3" x="585.97" y="59.25" width="14.36" height="6.42" rx="1.47" transform="translate(12.71 199.65) rotate(-19.31)"/><rect class="cls-4" x="681.63" y="300.88" width="12.2" height="65.5" rx="2.76" transform="translate(-71.63 246.19) rotate(-19.31)"/><path class="cls-5" d="M570.77,2.88l3.78,69.18a1.31,1.31,0,0,0,1.36,1.23,1.34,1.34,0,0,0,.81-.34l14.79-13.22a1.31,1.31,0,0,1,1-.33L611,60.88a1.3,1.3,0,0,0,1.17-2l-39-56.77a1.31,1.31,0,0,0-2.38.81Z"/><polygon class="cls-6" points="574.05 9.45 589.26 55.91 576.92 68.27 574.05 9.45"/><rect class="cls-7" x="730.31" y="78.92" width="92.26" height="64.33" rx="2.6" transform="translate(-5.53 50.06) rotate(-3.68)"/><path class="cls-8" d="M900.57,456.59q1.83-5.44,3.74-10.85l1.92-5.4,2-5.38q3.94-10.75,8.06-21.43l2-5.33,2.09-5.33c1.4-3.54,2.77-7.1,4.19-10.63,2.85-7.07,5.66-14.15,8.59-21.18l3.27-7.84,7.89,4.95,6.83,4.27q3.42,2.13,6.81,4.32l-13.09,5.12,3.12-19.2q1.59-9.6,3.27-19.19c1.12-6.4,2.24-12.77,3.4-19.15l3.53-19.13,1.21-6.56,6.93-2,13-3.67,13-3.61-8.63,12.75-2-14.82-2-14.83L979,267.1,982.7,263,995,249.42c4.12-4.5,8.22-9,12.36-13.5q12.39-13.47,24.94-26.79l-1.15,14L1026,215,1021,206.8l-4.23-6.83,4.66-5.92q14-17.87,28.37-35.5l7.18-8.8,7.27-8.72,7.25-8.76,7.31-8.71q14.64-17.4,29.73-34.47,7.55-8.53,15.22-17l3.85-4.21,3.89-4.18q3.87-4.19,7.86-8.29-2.85,5-5.77,9.86l-2.92,4.9-3,4.88q-5.92,9.74-12,19.36-12.17,19.26-24.78,38.2l-6.28,9.46-6.4,9.41-6.4,9.41-6.43,9.36q-12.91,18.71-26.13,37.18l.43-12.75,5.41,8,5.39,8,4.87,7.2-6,6.83Q1037.21,238.43,1025,252c-4.07,4.54-8.18,9.06-12.26,13.57l-12.32,13.52,3-9.54,1.76,14.86,1.69,14.86,1.18,10.35-9.81,2.4-13.1,3.2L972,318.41l8.12-8.53-4.5,18.92c-1.5,6.3-3.07,12.6-4.61,18.89s-3.15,12.58-4.76,18.86l-4.9,18.84-3.32,12.74-9.77-7.62q-3.19-2.47-6.33-5l-6.31-5,11.16-2.9c-3.64,6.69-7.4,13.33-11.12,20-1.86,3.32-3.77,6.62-5.66,9.93l-2.84,5-2.87,4.94q-5.74,9.9-11.65,19.73l-3,4.9-3,4.89Q903.67,451.75,900.57,456.59Z"/><path class="cls-9" d="M900.87,456.59c1.46-3.36,3-6.7,4.48-10s3-6.68,4.54-10q4.59-10,9.25-19.92,2.33-5,4.69-9.93l4.72-9.91c3.19-6.59,6.32-13.2,9.53-19.77l2.34-4.8,4.19,3.64,15.2,13.19-7.69,2.38,4.16-19.82,4.26-19.81L964.87,332c1.43-6.6,2.91-13.18,4.38-19.78l.8-3.58,3.68-1L988,303.8l14.24-3.8-4.83,6.77-1.35-16-1.28-16L994.5,272l1.84-2.13,12.37-14.19,12.44-14.14q6.21-7.08,12.46-14.12l12.5-14.07-.43,7.87-11-16.14-2.46-3.62,2.45-3.44,6.45-9,6.5-9,6.49-9,6.53-9,6.54-9,6.53-9,6.58-9,6.63-8.91q13.24-17.85,26.74-35.51T1141,55.61q-11.41,19.13-23.3,37.9T1093.83,131l-6,9.33-6.06,9.29-6.09,9.29-6.12,9.27-6.14,9.26-6.18,9.23-6.17,9.23-6.21,9.21V198l11.35,15.89,2.87,4-3.31,3.85-12.29,14.25q-6.15,7.14-12.34,14.23l-12.37,14.19-12.44,14.12,1.6-4.87,1.19,16,1.13,16,.39,5.46-5.21,1.31-14.29,3.59-14.3,3.54,4.48-4.58c-1.63,6.55-3.24,13.11-4.91,19.65l-5,19.64-5.06,19.61-5.14,19.6-2,7.78-5.65-5.4L938.94,382l6.53-1.15c-3.61,6.37-7.27,12.7-10.92,19l-5.51,9.5c-1.85,3.16-3.69,6.31-5.55,9.47q-5.57,9.47-11.2,18.89-2.81,4.71-5.68,9.4C904.71,450.35,902.81,453.49,900.87,456.59Z"/><path class="cls-8" d="M966.14,487.08c-.24-3.83-.45-7.64-.62-11.46l-.25-5.73-.2-5.72q-.41-11.44-.61-22.88l-.78-5.72v-5.71a75.57,75.57,0,0,0,.47-11.44c0-7.61-.08-15.23.47-22.84v-8.5l8.78,1.6,7.94,1.4c2.67.46,5.3.94,7.94,1.43l-10.22,9.67-4.34-19q-2.15-9.48-4.2-19c-1.36-6.34-2.74-12.67-4.06-19l-3.94-19.05-1.36-6.53,5.67-4.42,10.66-8.28,10.67-8.25-3.23,15.05-7.47-13-7.41-13-2.7-4.74,1.91-5.23,6.27-17.19c2.13-5.71,4.21-11.45,6.36-17.15q6.4-17.14,13-34.21l4.23,13.42L991.33,216l-7.77-5.68-6.48-4.73,2.08-7.24q6.27-21.83,12.91-43.57l3.33-10.86,3.41-10.85,3.41-10.84,3.5-10.82q7-21.63,14.55-43.13,3.74-10.77,7.7-21.46l2-5.33,2-5.33q2-5.34,4.16-10.67-.75,5.67-1.6,11.32l-.86,5.64-.91,5.63q-1.83,11.25-3.85,22.47-4,22.43-8.56,44.72l-2.27,11.14-2.36,11.13-2.37,11.11-2.43,11.1q-4.92,22.2-10.2,44.29l-4.4-12,8,5.33,8,5.34,7.22,4.83-3,8.63q-6,17.28-12.23,34.49c-2.06,5.75-4.18,11.47-6.26,17.2l-6.34,17.16-.8-10,7.23,13.09,7.16,13.13,5,9.14-8.18,5.93-10.93,7.9-11,7.85,4.31-10.95,3,19.23c1,6.39,1.91,12.79,2.84,19.23s1.83,12.84,2.7,19.27l2.56,19.29,1.73,13.06-11.93-3.38q-3.87-1.09-7.74-2.25l-7.74-2.28,9.25-6.88c-.85,7.56-1.84,15.12-2.78,22.67-.47,3.78-1,7.56-1.5,11.33l-.76,5.67-.8,5.67q-1.61,11.32-3.37,22.64l-.9,5.65-.93,5.66Q967.2,481.41,966.14,487.08Z"/><path class="cls-9" d="M966.14,487.08c.09-3.66.23-7.33.37-11s.27-7.33.43-11q.48-11,1.07-21.94.27-5.49.6-11l.63-11c.45-7.3.89-14.61,1.39-21.9L971,394l5.25,1.79,19,6.49-6.22,5.11-3.62-19.93-3.54-20-3.45-20c-1.16-6.65-2.27-13.33-3.39-20l-.6-3.62,3-2.31,11.73-8.93,11.73-8.88L999,312l-7.29-14.33-7.22-14.34-1.24-2.48.91-2.66,6.11-17.81,6.19-17.78q3.09-8.9,6.23-17.77L1009,207l2.56,7.46-16.25-10.81-3.64-2.43,1-4.1,2.57-10.81,2.62-10.79,2.61-10.8,2.67-10.78,2.67-10.78,2.71-10.77,2.73-10.77,2.77-10.76q5.55-21.51,11.39-43c3.9-14.3,7.9-28.58,12.13-42.8-2.25,14.67-4.72,29.29-7.3,43.88s-5.25,29.17-8,43.72l-2.08,10.92-2.13,10.9-2.14,10.9-2.18,10.89-2.19,10.89-2.24,10.88L1007,189l-2.29,10.86-2.66-6.52,16.47,10.41,4.19,2.67-1.6,4.79-6,17.84c-2,6-4,11.89-6.07,17.83l-6.11,17.8-6.18,17.79-.34-5.13,7.15,14.4,7.08,14.4,2.41,4.9-4.33,3.2L996.82,323l-11.89,8.65,2.42-5.94c1,6.68,1.94,13.37,2.86,20.06L993,365.81l2.71,20.08L998.32,406l1.07,8-7.27-2.87-18.72-7.4,5.61-3.52c-.94,7.25-2,14.5-2.94,21.75l-1.53,10.87q-.76,5.43-1.57,10.87-1.59,10.86-3.26,21.72-.84,5.42-1.73,10.85C967.33,479.83,966.77,483.45,966.14,487.08Z"/><path class="cls-10" d="M50.66,291.86c-9,1.36-20.26-6-18.13-16.18,4.8-22.86,10-46.56,14.33-69.8,3-16,3.36-32.52,6-48.52,2.75-17,22.93-22.89,37.42-25,45.92-6.7,112-.68,102.87,61.85C184.26,254.72,102.77,284,50.66,291.86Zm21.85-35.19c34.93-6.12,81.8-21.39,88.12-62,4.8-31-47.9-32-65.8-29.73-3.5.44-8.86,1.89-9.45,5.24-1.82,10.22-3.2,20.58-4.59,30.84-2.48,18.54-5.21,37.16-8.28,55.66Z"/><path class="cls-10" d="M276.92,258.54c-33.21,3.16-72-12.74-65.87-52.29,7.53-48.92,56.21-99.24,106.11-102.91,19.25-1.4,41.44-.19,55.6,15.06,11.25,12.12,13.52,29.54,12.12,45.41C380.17,217.16,326.81,253.8,276.92,258.54Zm34.91-123.86c-31.85,3-59.41,35.76-63.65,65.92C245,222.85,267.57,231.78,286,230.15c31.54-2.79,60-33.87,63.24-64.88C351.63,142.57,331.83,132.83,311.83,134.68Z"/><path class="cls-10" d="M570.09,240.33c-24.85.16-23.46-25.82-27.11-43.86-2.75-13.62-2.87-29.28-7.94-42.28-9.39,19.05-15.11,39.58-22.9,59.28-4.26,10.8-11.76,31.8-26,32.63-10.54.6-17.25-3.47-19.32-14-5.08-23.16-9.27-46.49-14.66-69.59-8.7,20-19.19,42.76-20.93,64.69-1.15,14.3-8.88,24.86-24,26-8.72.64-18.89-5.44-17.6-15.34,3.54-27,20.8-54.22,30.3-79.44,7.23-19.2,13.18-63.8,40.13-65,16.22-.71,19,23.24,20.7,34.86,2.71,18.38,5.1,37.22,10.76,55,7.6-19.59,17.2-38.44,24.3-58.17,4.72-13.1,12.66-32.47,28.88-33.43,8.68-.54,15.32,7.06,17.6,14.76,6.4,20.3,8.65,42,12.09,62.89,3.14,19.09,10.2,39.42,10.29,58.85C584.72,236.42,577.3,240.28,570.09,240.33Z"/><path class="cls-10" d="M680.63,89.51c7.65.24,14.19,5.34,17.3,12.27,10.13,19.9,19.61,40.16,28.2,60.78,7.84,18.84,17.64,40.32,18.2,61.07.25,9.48-5.76,17.66-15.9,17.31s-18.4-9.72-21.18-18.82c-2.13-7.08-4.15-14.35-6.81-21.33q-27.09,2.43-54.16,5.14c-1.39,3.15-2.08,4.72-3.49,7.87-5,11.68-10.71,32.81-26.24,33.32-8.62.29-19.95-5.42-19.19-15.6,1.6-21.27,18.29-44.79,28.13-63.12q18.07-33.68,37.42-66.65C666.78,94.54,671.93,89.25,680.63,89.51Zm-19.84,85.75c10.57-.68,21.11-1.6,31.68-2.43-4.27-10.73-7.55-21.8-11.94-32.49C673.69,151.84,667,163.42,660.79,175.26Z"/><path class="cls-10" d="M798,197c.38,9.92,1.1,20,1.38,29.78.37,12.88-9.94,21.73-22.62,21.68-8.63,0-14.3-5.16-14.45-13.76-.7-37.33-1.48-74.75-2.56-112-.37-12.42,0-32.14,17.52-31,13.86.92,18,15.7,18.46,27.38C796.77,145,797,171.09,798,197Z"/><path class="cls-10" d="M859.94,164.49c-.3,11.13-.46,22.39.23,33.44.64,10.27,2.25,20.61,3,30.88.86,11.91-5.56,21.76-18.5,21.07-13.49-.72-18.26-10.44-18.82-23-1.36-30.86.09-62.16-1.42-92.74-.43-8.54-3.07-17.33-3.34-25.73a14.92,14.92,0,0,1,15.28-15.09c17.88.61,30.24,24.13,38,37.43a434.06,434.06,0,0,0,27.52,40.57c6.71,9,17,26.75,28.69,29.86-2.34-27.59-6.45-55.19-8.81-82.59-.9-10.39,2.08-22.43,15.22-21.07,16.94,1.75,19.19,28.55,20.21,41.15.85,10.3,1.14,20.84,2,31,1.55,18.13,4.74,36.73,6.75,54.85,1.6,14.46-6.07,23.07-20.57,21.86-16.76-1.37-33.22-19.79-44.22-31.1A352.9,352.9,0,0,1,859.94,164.49Z"/><path class="cls-10" d="M1127.67,265c-28.44-3.15-59.24-21.8-63.22-52.46-4.8-37,28.33-68.89,64.6-64.91,33.41,3.66,60.43,24.89,65.82,58.92C1201.29,247,1163.82,269,1127.67,265Zm3.31-93.24c-24.08-2.57-40.44,19.87-37.85,42.34,2,17.37,20.26,27.91,36.16,29.71,24.13,2.72,41-18.67,37.57-41.71C1164.25,184.46,1147.66,173.51,1131,171.73Z"/><path class="cls-10" d="M1282.89,192.8c-9.18-1.69-18.58-3.76-27.77-5.22a122.7,122.7,0,0,0-19.8-1.7c1.23,8.36,2.67,16.69,4.1,25,.2,1.14.31,1.8,1.06,1.89,12.3,1.55,25.13.2,37.6,2,8.28,1.15,19.12,4.83,21,14.27,2.92,14.93-27.28,9.65-34.45,9-7-.68-14.26-1.81-21.36-1.6.17,1,.25,1.47.42,2.45,1.31,7.51,2.84,15,4.21,22.49,1.94,10.59-1.77,20.58-14.2,19.34a14.25,14.25,0,0,1-12.8-12.2c-4.38-28.11-8.49-56.86-13.25-84.9-1.91-11.24-.29-24.58,14.56-22.18,12.8,2.06,26.42,2.49,39.46,4.34,10.67,1.52,31,4.12,33.68,16.83C1296.82,189.68,1289.39,194,1282.89,192.8Z"/><path class="cls-11" d="M37,309.22c-10.28,1.58-20.27-8.15-18-18.58,5.53-25.79,11.2-52.53,16.34-78.86,3.52-18.13,4-36.87,7.29-54.92s22.17-25.36,38.52-27.78c24.91-3.68,53.85-5.33,76.86,6.85,23.89,12.65,30,39.39,26.13,64.45C174.15,265,94.54,300.4,37,309.22Zm22.76-39.55c38.48-7,83.56-26.27,91-69.08,5.65-32.68-45.86-37.15-66.12-34.51-3.56.47-9,2-9.71,5.81-2.13,11.57-3.76,23.27-5.41,34.88C66.51,227.7,63.29,248.73,59.72,269.67Z"/><path class="cls-11" d="M268.29,274c-37.68,3.74-72.51-18.36-66.23-59.76,7.75-51.15,55.45-111.34,109.54-115.35,20.09-1.5,42.43.66,56.23,17.44,11.61,14.13,13.26,33.93,11.76,51.42C374.73,224.05,322.86,268.61,268.29,274Zm37.42-140c-34.75,3.29-61.63,41.87-65.79,74-3.09,23.59,16.64,35.73,38.08,33.77,34.47-3.11,61.91-40.27,65.32-72.86,2.48-23.77-15.14-37-37.63-34.87Z"/><path class="cls-11" d="M567.85,255c-26.22.12-24.27-31.1-27.48-49.59-2.67-15.25-2.47-33.15-7.88-47.79-9.72,21.64-15.58,44.69-23.68,66.93-4.27,11.65-11.42,35.67-26.8,36.73-11.59.81-17.73-4.76-19.62-15.84-5-26.19-9.06-52.56-14.36-78.7-9.17,22.85-20.06,48.3-21.91,73-1.09,14.4-8.76,28.41-24.74,29.23-9.6.5-19.08-7.17-17.8-17.43,3.73-30.05,21.7-61.08,31.72-89.61,7.14-20.31,13.1-71.9,41.42-73.22,17.12-.8,19.24,27.59,20.74,39.46,2.62,20.75,4.87,42,10.54,62.21,7.91-22.06,17.83-43.44,25.14-65.64,4.5-13.68,12.3-36.62,29.55-37.67,9.35-.56,15.72,8.71,17.83,16.73,6.43,23.08,8.63,47.45,12,71.08,3.11,21.55,10.25,44.63,10.28,66.49C582.82,249.92,575.85,254.93,567.85,255Z"/><path class="cls-11" d="M680.77,84.71c8.17.29,14.65,6.5,17.6,13.87,10.32,22.54,20,45.41,28.79,68.61,8.17,21.63,18.09,45.52,18.71,69,.26,9.83-5,20-16.2,19.58-10.93-.4-19-11.6-21.66-21.25-2.19-8-4.39-16.13-7-24.09q-27.64,2.75-55.27,5.81c-1.43,3.56-2.13,5.33-3.57,8.89-4.74,12.26-10.42,37.07-26.86,37.62-10.1.33-20.06-7-19.56-17.66.44-9.16,5-18.67,8.57-27.16,6.21-14.93,13.22-29.56,20.27-44.1Q643,135.84,662.76,98.5C666.47,90.87,671.51,84.4,680.77,84.71Zm-20.19,96.87c10.78-.77,21.53-1.79,32.29-2.76-4.39-12.12-7.68-24.59-12.18-36.69C673.71,155.15,666.89,168.22,660.58,181.58Z"/><path class="cls-11" d="M800.53,206c.46,11.2,1.21,22.55,1.56,33.64.43,13.61-9,24.57-23,24.53-9.12,0-14.87-6.71-14.82-15.52.24-41.13-1.64-84.56-3-126.52-.43-13.12-1.36-36,17.69-35,15.19.77,18.4,18.81,18.9,30.87C799,147.21,799.37,176.71,800.53,206Z"/><path class="cls-11" d="M863.48,169c-.22,12.58-.23,25.23.48,37.78.66,11.65,2.46,23.27,3.28,34.88.86,12.31-4.53,24.67-18.75,23.88-14.78-.82-18.76-12.8-19.37-25.95-1.6-34.83-.28-70.19-2-104.78-.49-9.65-2.8-19.36-3.56-29.05-.68-8.65,6.4-17.54,15.43-17.1,19.28.94,31.16,27.63,38.93,42.12a493.2,493.2,0,0,0,28.35,45.71c6.53,9.5,17.46,30.35,29.54,33.55-2.59-31.16-7.23-62.28-9.83-93.28-.89-10.64,1-25.37,15.22-23.91,18.13,1.86,19.89,33.24,21,46.39,1,11.65,1.38,23.51,2.41,35.07,1.83,20.52,5.31,41.43,7.52,61.95,1.64,15.23-4.6,26.19-20.75,24.86-17.65-1.45-34.46-22.57-45.44-34.91A391.31,391.31,0,0,1,863.48,169Z"/><path class="cls-11" d="M1137.66,280.73c-30.86-3.64-61.64-26.21-65.31-58.74-4.27-37.65,23.58-78.82,64.56-74.06,36.66,4.27,62.2,29.8,68,65.94C1211.71,255.84,1178.7,285.55,1137.66,280.73Zm1.52-105.51c-27.67-3-39.83,25.63-37.75,48.27,1.71,18.49,19.78,31.22,37.36,33.25,26.91,3.1,41-24.12,37.45-47.59-2.82-18.61-18.8-32-37.06-34Z"/><path class="cls-11" d="M1294,197.16c-9.29-1.47-18.93-4-28.3-5.53a113,113,0,0,0-20.12-1.66c1.42,9.45,3.1,18.86,4.74,28.26.22,1.29.37,2,1.12,2.13,12.44,1.55,25.59-.17,38.23,1.7,9.09,1.34,19.63,5.82,21.63,15.86,3.27,16.39-26.51,11.41-34.78,10.63-7.12-.68-14.54-1.87-21.75-1.54l.48,2.75c1.55,8.49,3.25,16.94,4.8,25.42,2,10.85-.15,23.46-14,22.07-7.31-.74-12.2-6.67-13.33-13.66-5.05-31.82-10-64-15.33-95.93-1.82-10.87-1.63-28.16,14.28-25.31,12.75,2.29,26.85,2.47,40.11,4.39,11.65,1.69,31.84,4.94,34.55,18.56C1307.79,192.8,1301.32,198.33,1294,197.16Z"/><path class="cls-12" d="M162.13,257.63c0-11.34,4.26-36.25,26.7-42.19,16.35-4.31,37.49,2.93,41.37,14.68,3.73,11.34-10.07,22.57-5.33,28.69,2.83,3.67,9.44,1.79,20.68.67,14.48-1.45,33.59-3.36,46,3.33,14.21,7.66,24.77,29.33,18,44-7.73,16.83-36.32,20.54-54,12.67s-24.45-27.25-32-24.68c-5.41,1.84-2.56,11.9-10,18.66-11.25,10.25-33.69,1.83-36.7.67-14.32-5.57-41.06-24.87-34.43-44.83C151.46,242.17,162.13,259.77,162.13,257.63Z"/><path class="cls-13" d="M344.89,266.7c-4.27-3.55-16.53,12.92-34.13,11.73-9.06-.61-21.18-6-24-16.53-2.47-9.23,2.67-20.85,10.66-24.53,10.24-4.69,19.59,6.16,36.79,2.14a26.85,26.85,0,0,0,10.67-4.8c5.19-4.07,4.95-7.47,8.53-10.67,7.58-6.74,21.33-2.7,25.06-1.6,6.56,1.93,22,8.27,22.4,17.6.31,7.06,0,10.66-11.73,13.33-1.33.3,9.06,1.06,12.79,7.46,6.19,10.61-3.05,26.83-4.26,29.86-2.39,5.94-16.72,13.14-21.86,14.93-9.84,3.44-28.77-2.44-34.13-10.66C335.75,285.86,349.16,270.25,344.89,266.7Z"/><path class="cls-14" d="M226.22,292.71c-5.33,1.07-4.92,8.27-20.79,11.2-13.11,2.41-26.18,3.2-31.33-.48-.79-.57-9.06-6.69-9.45-16.06-.44-11.4,10.95-23,21.37-26.37,25.81-8.28,19.41,4.52,21.54,4,8.34-2.08,14.93-16.53,31.06-10.86,8.08,2.84,3.62,6,7.33-1.4s18.66-14.4,34.13,5.33c4.89,6.24-3.81,43.65-18.86,47.09C217.69,315.1,226.75,292.6,226.22,292.71Z"/><path class="cls-15" d="M314.46,272.56C316.39,261,348.18,262,360.85,263c1.43.1,13.63,7.81,16,19.73,1.71,8.56-8.49,18.61-18.13,19.72-10.71,1.24-21.33-10.66-27.19-12.79-3-1.07,5.33,4.8,2.66,12.26-3.77,10.56-15.46,10.86-23.46,11.2-14.81.62-32.4-2.43-40.72-14.71-7.09-10.45-6.28-28.51,2.42-34.6,9.26-6.47,15.69-10.41,28.7-4.55C311.8,264,313.93,275.76,314.46,272.56Z"/><rect class="cls-16" x="480.88" y="232.07" width="9.11" height="189.88" rx="3.3" transform="translate(-44.66 78.85) rotate(-8.88)"/><rect class="cls-17" x="421.15" y="241.59" width="104.49" height="9.11" rx="3.3" transform="translate(-32.32 76.03) rotate(-8.88)"/><path class="cls-18" d="M432.59,250a5.77,5.77,0,0,0-4.87,6.19,212,212,0,0,0,7.6,40.58c6.53,22.46,11.46,25.51,14.4,42.52,4.87,28-2.8,52.33.33,53,2.32.53,4.26-13.42,14.82-17.2,4.26-1.54,8.27-.78,14.93.48,12.48,2.37,15.27,6.89,21.69,5.27,4.67-1.19,3.78-3.74,10.55-7.65,1.69-1,13-7.53,23.09-3.81,6.65,2.46,8.7,7.91,10.13,7.17,2.55-1.31-5.09-17.63-9.38-36.79-3.5-15.66-2.63-23.65-3.6-37.75-1-14.71-4-35.35-12.74-60.85a5.87,5.87,0,0,0-6.48-3.86Z"/><polygon class="cls-19" points="456.76 327.33 472.2 273.74 495.08 307.69 483.7 309.42 477.76 300.56 470.61 325.24 456.76 327.33"/><polygon class="cls-20" points="477.51 298.97 485.98 311.51 482.06 323.5 503.56 320.24 512.79 333.48 465.99 340.58 477.51 298.97"/><polygon class="cls-21" points="481.79 323.54 487.04 308.91 495.08 307.69 480.87 286.6 486.12 271.63 517.22 318.16 481.79 323.54"/><polyline class="cls-22" points="474.22 310.86 471.07 311.33 475.66 295.99 477.61 299.15 474.22 310.86"/><polyline class="cls-22" points="495.08 307.69 488.4 297.78 489.78 294.67 498.25 307.21 495.08 307.69"/><polygon class="cls-22" points="481.57 324.19 480.16 327.85 494.07 325.74 491.96 322.81 481.57 324.19"/><polygon class="cls-23" points="176.69 408.84 179.83 422.17 205.71 453.55 208.05 433.08 227.27 425.66 189.6 407.91 176.69 408.84"/><rect class="cls-24" x="139.32" y="294.74" width="5.25" height="174.54" rx="1.43" transform="translate(-247.1 260.64) rotate(-52.29)"/><path class="cls-5" d="M32.12,298.37l37.63,44c.59.69,1.6.63,1.73-.1l1.88-13.33a.62.62,0,0,1,.4-.53l11.56-4.9c.69-.29.48-1.31-.35-1.7L33.09,297.1C32.11,296.62,31.41,297.54,32.12,298.37Z"/><polygon class="cls-6" points="37.4 301.63 70.08 327.14 69.2 339.12 37.4 301.63"/><polygon class="cls-23" points="158.9 406.39 159.41 420.07 178.75 455.85 185 436.22 205.28 432.64 171.74 407.96 158.9 406.39"/><rect class="cls-25" x="127.33" y="286.11" width="5.25" height="174.54" rx="1.43" transform="translate(-213.7 177.92) rotate(-41.18)"/><path class="cls-5" d="M38.31,270.14l28.46,50.39c.45.79,1.47.93,1.71.24l4.42-12.72a.63.63,0,0,1,.49-.43l12.29-2.57c.72-.15.71-1.19,0-1.74L39.55,269.07C38.63,268.42,37.78,269.18,38.31,270.14Z"/><polygon class="cls-6" points="42.87 274.36 70.03 305.68 66.85 317.26 42.87 274.36"/><polygon class="cls-23" points="163.77 387.79 169.22 400.35 200.26 426.65 198.93 406.09 216.53 395.38 176.31 384.59 163.77 387.79"/><rect class="cls-26" x="122.22" y="280.2" width="5.25" height="174.54" rx="1.43" transform="translate(-258.76 308.53) rotate(-62.5)"/><path class="cls-5" d="M1.92,304.68l44.82,36.6c.71.58,1.72.34,1.68-.4l-.53-13.44a.67.67,0,0,1,.31-.59L58.74,320c.62-.41.23-1.37-.65-1.6L2.64,303.26C1.6,303,1.08,304,1.92,304.68Z"/><polygon class="cls-6" points="7.7 306.95 44.38 326.26 45.64 338.21 7.7 306.95"/><path class="cls-27" d="M156.35,338.17c-.37,5.95-1.07,11.9-1.86,17.77-2.39,18.21-5.25,36.63-9.24,54.58-2.22,10-7.58,18.66-18.26,20.5-9.85,1.67-13.49-3.53-12-12.34,2.13-12.55,5.37-25.13,7.23-37.6,1.92-12.79,2.9-26.05,4.32-39.07-7.56,3.16-17.06,3.45-25,4.8-5.94,1-14.75-1.39-13.42-9.13,1.65-9.55,14.15-14,22.47-15.21,11.92-1.77,24.22-2.79,36-4.55,12.22-1.83,24.46-5.45,36.83-7.47,6.18-1,19.66-1.94,17.84,8.34-2.25,12.69-18.88,15.5-29.48,16.86C166.63,336.3,161.45,337.17,156.35,338.17Z"/><path class="cls-27" d="M302.1,372.61c-.73,7.71-1.22,15.56-2,23.18-1,10-9.77,17.81-19.56,19-6.63.8-10.24-3-9.41-9.52l4.47-43.72c-13.18,3.68-26.45,6.63-39.32,11.31-1.15,10.35-2.11,20.8-3.31,31.07s-10.5,17.78-20.05,19.38c-6,1-10.66-3-9.59-9.15,4.82-27.66,7.71-58.12,11-87,1.25-11,4.08-24.41,17.11-26,10.92-1.38,12.22,11.68,11.3,19.29-1.15,9.6-2.61,19.15-3.78,28.75,13.1-3.24,25.87-7.57,39-10.67l2-19.85c1-11,3.73-24.38,16.88-25.76,10.85-1.14,12.52,11.55,11.73,19.33C306.44,332.28,304,352.49,302.1,372.61Z"/><path class="cls-27" d="M405.92,309.66c-9.11.54-18.38.28-27.47.83-7.23.44-19.19.41-21.67,2.78-2.67,2.55-3.07,14.74-3.66,22.21-.07.8.69.75,1.8.65,14.19-1.3,28.3-7.38,42.32-8.39,6.66-.49,15.38,3.19,14.93,10.76-.38,6.81-6,12.26-13.05,13.26-16.81,2.42-33.44,7.31-50.37,9.47-1.1,6-1.37,12.17-1.87,18.25-.39,4.63,4.19,4.8,10.38,4.26,15.43-1.36,30.65-7.22,46.08-8.42,6.59-.53,15.28,1.69,15.06,9.85-.22,7.89-7.79,12.74-14.77,14.13-18,3.6-36.08,7-54.35,8.57-19,1.6-31.26-2.93-29.09-24.21,2.57-25.06,8.83-50.29,10.76-74.87.66-8.47,7-16.41,15.69-17.69,18.71-2.75,37.63-5.52,56.59-7,8.42-.65,24.66-1.13,23.77,11.49C426.26,306.39,414.93,309.16,405.92,309.66Z"/><path class="cls-27" d="M587.15,396.5c-33.74.4-73-11.75-71.27-52.54,2.29-52.34,55.17-105,108-105.17,18.89-.07,53.71,3.2,53.69,29.06,0,8.23-9.54,14.07-16.6,14.25-4.4.11-7.26-2-10.72-4.72-7.13-5.5-14.77-7.72-23.53-7.9-32.38-.67-73.29,36.14-73.89,70.45-.32,18.78,16.85,23.82,32.25,23.85,14.65,0,61.45-7,61.74-29.06,0-.4-.72-.61-1.2-.61-10,.47-19.8,3.2-29.33,5.7-8.57,2.25-17.38,4.8-26.25,5.05-8,.24-18.44-4.4-18.37-13.37.1-14.69,24.93-21.06,36.29-23.95a240.57,240.57,0,0,1,58.12-7c9.43,0,22.17,2.85,22.2,14.68C688.33,364.63,630.57,396,587.15,396.5Z"/><path class="cls-27" d="M779.64,394.19c-34.58-1.16-74.81-21.53-75-60.74-.3-47.82,45.14-91.83,92.25-89.44,41.55,2.13,75,25.06,77.75,69.32C877.82,366,826.91,395.78,779.64,394.19ZM796.2,274.56c-31-1.45-55.19,28.43-54.65,57.83.43,22.51,23.12,33.85,43,34.43,30.33.88,56-26.44,54.25-56.8-1.27-22.59-22-34.5-42.61-35.46Z"/><path class="cls-27" d="M925.65,407.63c-10.13-.81-22.26-10.05-23.16-20.6-1.88-22.12-1.84-45.52-3.39-68.06-1.11-16.12-5-32.52-6.57-48.24-1.72-17.06,21.17-18,32.61-17.11,52.11,4,116.47,26.08,122.75,86.44C1054.24,400.77,968.29,411.05,925.65,407.63Zm13.5-31.07c29.41,1.37,80-2.85,75.31-43.42-3.54-30.39-51.76-43-76-45.24-3.51-.32-8.75,0-8.49,3.2.8,10.17,2,20.37,3.29,30.47,2.25,18.25,4.27,36.64,5.93,55Z"/><path class="cls-27" d="M1083.18,374.73c5.42.91,10.26,3.95,14.71,7.42,11.84,8.61,24.63,13.12,38.88,15.21,9.06,1.33,49.21,1.8,46-14.21-1.32-6.54-13.38-8.95-19.16-10.55-12.59-3.5-25.5-5.87-38.18-9.06-20.91-5.27-56.49-13.74-59.48-40-4.31-37.79,67.27-47,92.42-43.57,18.84,2.6,38.51,13.95,41.06,33.94.89,7-6.77,10.9-12.84,10-12.17-1.74-21.5-11.68-33.89-13.33-10.36-1.38-49.76,2.35-47,17,1.07,5.56,12.36,7.29,17.68,8.45,13.07,2.86,26.34,4.64,39.39,7.65,23.56,5.45,57,15.54,61.32,43.57,5.7,36.65-56.38,43.72-80.22,40.44-21.59-3-70-14.23-73.14-40.78C1069.84,379.55,1075.35,373.4,1083.18,374.73Z"/><path class="cls-11" d="M145,347.05c-.51,6.8-1.32,13.57-2.26,20.32-2.91,20.88-6.06,41.89-10.53,62.38-2.31,10.59-7.36,21.3-19.09,23.24-11,1.83-13.53-4.94-12-14.28,2.31-14.25,6-28.7,8.18-43,2.23-14.68,3.51-29.81,5.24-44.7-7.6,3.44-17.64,3.64-25.56,5.1-6.94,1.29-14.67-3-13.47-10.66,1.6-10.23,14-15.69,23.23-17.09,12.16-1.86,24.77-2.84,36.79-4.7,12.49-1.93,25.09-6.05,37.68-8,7.16-1.13,19.95-1.47,18,9.77-2.35,13.73-18.68,17.39-30.39,18.93C155.55,345.05,150.24,346,145,347.05Z"/><path class="cls-11" d="M293.35,388.07c-.83,8.81-1.49,17.74-2.37,26.5-1.06,10.67-9.57,20.22-20.32,21.57-7.43.93-10.36-4.22-9.5-11l5.22-50c-13.53,4.09-27.19,7.35-40.38,12.54-1.36,11.84-2.5,23.76-3.9,35.53-1.29,10.87-9.93,20.42-20.86,22-7.21,1-10.61-3.79-9.68-10.58,4.57-33,8.81-66.36,12.8-99.48,1.34-11.15,4.1-28.1,17.92-29.62,11.65-1.28,12.11,14.43,11.19,22.21-1.28,10.95-3,21.89-4.34,32.86,13.46-3.56,26.52-8.38,40-11.78q1.2-11.34,2.37-22.69c1.11-11.13,3.7-28.08,17.6-29.33,11.58-1,12.51,14.25,11.67,22.23C298.39,342,295.55,365.1,293.35,388.07Z"/><path class="cls-11" d="M400.31,316.88c-9.32.53-18.8.19-28.08.76-7.4.45-19.77.57-22.18,3-2.9,2.95-3.24,16.81-4,25.36-.08.91.7.87,1.84.76,14.57-1.38,29-8.24,43.37-9.3,6.76-.49,15.82,4.3,15.18,12.4-.56,7.24-6.22,13.94-13.49,15.08-17.2,2.71-34.27,8.14-51.67,10.48-1.26,6.85-1.56,13.93-2.13,20.86-.44,5.3,4.27,5.52,10.6,4.94,15.85-1.45,31.35-8.13,47.3-9.31,6.74-.5,16.22,2.86,15.34,11.34-.83,8-7.39,14.58-15.27,16.08-18.09,3.43-37,7.81-55.84,9.43-21.61,1.86-31.82-5.24-29.51-27.92,2.91-28.64,9.73-57.44,12-85.56.72-9,6.68-18.57,16.24-20.1,19.17-3.06,38.43-6.11,57.85-7.57,9.31-.7,25.42-.15,24.18,13.3C420.94,312.29,410.51,316.28,400.31,316.88Z"/><path class="cls-11" d="M585.41,416.87c-38.29.42-74.71-16.62-72.87-60.26,2.3-54.78,52.45-119.75,110.71-120,21.54-.08,55.19,5.7,54.81,33.21-.11,8.16-8.61,16.42-16.95,16.31-4.57-.07-7.46-2.35-11-5.4-7.15-6.18-14.87-8.81-24-9-36.26-.88-74.81,44.55-75.75,80.4-.54,19.33,15.17,27.73,33,27.33,17.46-.41,63.08-9,63.3-33.16,0-.47-.74-.7-1.24-.7-10.23.53-20.33,3.65-30,6.49-8.75,2.57-17.78,5.47-26.89,5.75-8.29.26-19.28-5.61-18.79-15.31.84-16.27,24.7-23.78,37.23-27.31a223.66,223.66,0,0,1,59.42-8c10.76,0,22.68,4.1,22.72,16.78C689.2,376.56,634.43,416.33,585.41,416.87Z"/><path class="cls-11" d="M783,414.08c-39.3-1.35-76.67-27.33-77.15-69.27-.58-49.54,41.08-104.88,93.95-102.47,46.28,2.13,77,32.83,79.92,78.92C883.2,376.79,836.49,415.93,783,414.08ZM799.31,277.4c-34.39-1.65-56.18,35.92-55.62,66.28.45,24,22,38.24,44.21,39.23,34.07,1.52,56.76-34.06,55.19-65.16C841.87,293.63,822.37,278.51,799.31,277.4Z"/><path class="cls-11" d="M932.92,428.74c-11.2-.94-23-12.13-23.95-23.41-2.14-25.4-2.41-51.92-4.15-77.8-1.24-18.48-5.38-37.14-7.2-55.13-1.86-18.47,19.82-20.79,33.06-19.78,58.12,4.48,119.55,33.28,126.48,97.78C1064.21,416,981.94,432.88,932.92,428.74Zm13.22-35.63c33.89,1.53,81.23-6,76.49-50.28-3.46-32.37-51.4-49.06-78.25-51.11-3.63-.28-8.93,0-8.64,3.73.91,11.63,2.32,23.28,3.74,34.82C942,351.11,944.24,372.14,946.14,393.11Z"/><path class="cls-11" d="M1093.81,389.69c5.71,1,10.67,4.5,15.18,8.33a81.3,81.3,0,0,0,40,17c10.44,1.37,50.19,1.42,46.7-16.88-1.42-7.41-14.1-10.13-20.37-12-12.73-3.74-25.78-6.27-38.6-9.7-23.37-6.26-58.12-16.49-61.44-45.13-4.72-40.63,64.47-55.11,93.34-51,20.86,2.95,38.68,17.26,42.52,38.28,1.34,7.3-6.67,12.48-12.84,11.69-12.45-1.6-21.86-13-34.81-14.79-11.54-1.6-50.37,3-47.58,20.08,1.06,6.5,13.16,8.31,18.81,9.6,13.18,3,26.57,4.89,39.71,8.1,26.22,6.4,58.7,18.66,63.53,49,6.31,39.71-53.29,51.25-81.14,47.42-23.72-3.26-72.22-16.87-75.59-45.85C1080.37,396.22,1085,388.15,1093.81,389.69Z"/><path class="cls-28" d="M807.27,240a107.83,107.83,0,0,0,25.26,23.95,74.37,74.37,0,0,0,50.53,11.84l3.2,17.8c-5.93.53-19-1.15-25.71-1.75-21.23-1.89-39.19-9.83-53-18.31Z"/><path class="cls-28" d="M778.74,236.26c-5.75,7.69-13.86,16.81-24.52,23.95-19.61,13.19-41,12.51-50.69,11l-3.66,17.89c5.92.54,19.58-.4,26.33-1,21.22-1.89,39.18-9.83,53-18.3Z"/><path class="cls-29" d="M700,276.77c-.7.28-1.27-.92-.92-1.94a42.16,42.16,0,0,1,5.88-11.7c6.53-8.73,15.93-11.58,17.11-8.16.59,1.69-.53,5.76-7.74,16a.79.79,0,0,1-.36.29Z"/><path class="cls-29" d="M715.12,276.42c-.8.33-1.46-1.06-1.06-2.25a48.66,48.66,0,0,1,6.84-13.58c7.58-10.13,18.5-13.45,19.87-9.48.68,2-.65,6.68-9,18.53a.91.91,0,0,1-.41.34Z"/><path class="cls-29" d="M732.33,274c-.86.41-1.55-1.19-1.1-2.59a63.11,63.11,0,0,1,7.46-16.17c8.21-12.17,19.86-16.5,21.25-11.92.7,2.27-.79,7.85-9.85,22.05a1.05,1.05,0,0,1-.44.42Z"/><path class="cls-29" d="M752.33,269.49c-.94.47-1.69-1.25-1.23-2.8a69.79,69.79,0,0,1,8-17.8c8.8-13.47,21.39-18.5,22.93-13.55.77,2.46-.79,8.57-10.49,24.27a1.18,1.18,0,0,1-.47.47Z"/><path class="cls-29" d="M712.79,272.27c-.7-.24-1.25,1-.89,2a40.49,40.49,0,0,0,6.12,11.4c6.69,8.39,16.14,10.76,17.25,7.29.54-1.72-.66-5.73-8-15.56a.74.74,0,0,0-.35-.28Z"/><path class="cls-29" d="M727.63,273.13c-.82-.07-1.31,1.5-.79,2.54a37.73,37.73,0,0,0,8.31,11.23c8.62,7.61,19.72,7.46,20.61,3.16.44-2.13-1.42-6.36-11-15.41a.66.66,0,0,0-.44-.21Z"/><path class="cls-29" d="M742.54,267.21c-.9-.14-1.39,1.64-.79,2.88A49.64,49.64,0,0,0,751,283.65c9.48,9.42,21.42,10.06,22.26,5.13.41-2.44-1.7-7.46-12.27-18.59a.82.82,0,0,0-.47-.28Z"/><path class="cls-29" d="M757.18,261.47c-1,0-1.77,1.6-1.24,2.59a31.25,31.25,0,0,0,8.91,10.75c9.68,7.12,23.22,6.35,24.77,2,.77-2.17-1.06-6.29-11.73-14.79a.86.86,0,0,0-.53-.19Z"/><path class="cls-29" d="M699,272.39c-.7-.24-1.25,1-.88,2a40.6,40.6,0,0,0,6.11,11.4c6.69,8.4,16.14,10.76,17.26,7.29.53-1.73-.68-5.74-8.05-15.56a.76.76,0,0,0-.36-.28Z"/><path class="cls-29" d="M885.53,280.19c.68.31,1.28-.86,1-1.9a43.83,43.83,0,0,0-5.69-12c-6.4-9-15.73-12.26-17-8.92-.62,1.67.46,5.79,7.46,16.3a1,1,0,0,0,.35.31Z"/><path class="cls-29" d="M870.46,279.18c.8.35,1.49-1,1.11-2.21A51,51,0,0,0,865,263.1c-7.41-10.46-18.27-14.25-19.73-10.35-.72,1.94.53,6.72,8.68,18.92a1,1,0,0,0,.4.37Z"/><path class="cls-29" d="M853.28,276c.86.45,1.57-1.12,1.15-2.55A65.24,65.24,0,0,0,847.22,257c-8-12.53-19.57-17.36-21.05-12.85-.73,2.24.67,7.88,9.49,22.47a1.21,1.21,0,0,0,.43.44Z"/><path class="cls-29" d="M833.37,270.6c.93.53,1.71-1.18,1.27-2.74A72.18,72.18,0,0,0,827,249.7c-8.56-13.86-21.07-19.43-22.71-14.55-.81,2.42.66,8.6,10.09,24.72a1.35,1.35,0,0,0,.46.49Z"/><path class="cls-29" d="M872.85,275.12c.7-.21,1.23,1,.85,2a39.21,39.21,0,0,1-6.3,11.12c-6.83,8.1-16.31,10.06-17.37,6.53-.54-1.75.76-5.7,8.3-15.2a.78.78,0,0,1,.36-.26Z"/><path class="cls-29" d="M858,275.32c.83,0,1.3,1.56.75,2.58a36.5,36.5,0,0,1-8.49,10.86c-8.74,7.22-19.84,6.6-20.65,2.25-.41-2.14,1.52-6.3,11.24-14.93a.69.69,0,0,1,.45-.2Z"/><path class="cls-29" d="M843.19,268.75c.9-.1,1.36,1.7.74,2.91a47.3,47.3,0,0,1-9.45,13.15c-9.63,9-21.58,9.11-22.33,4.15-.38-2.46,1.81-7.38,12.54-18a.85.85,0,0,1,.48-.26Z"/><path class="cls-29" d="M828.65,262.8c1,0,1.74,1.66,1.19,2.67a30,30,0,0,1-9.06,10.35c-9.8,6.69-23.33,5.33-24.81.89-.73-2.21,1.15-6.24,12-14.27a.83.83,0,0,1,.53-.16Z"/><path class="cls-29" d="M886.68,275.86c.7-.21,1.23,1.07.85,2a39.06,39.06,0,0,1-6.3,11.11c-6.83,8.1-16.32,10.05-17.37,6.53-.54-1.75.76-5.7,8.3-15.2a.78.78,0,0,1,.36-.26Z"/><path class="cls-30" d="M819,56.49c-3.49-.9-6.93-4.21-6.93-7.27,0-1.46.79-1.6,1.79-5.8.31-1.33.53-2.62,1.06-2.67s1.12.91,1.74,1.82c.44.66.63,1.07,1.06,1.14s.64-.23,1-.47c1.2-.84,3-1,3.44-.45s-.49,1.6-.14,1.93,1.25-.76,3-1.16c1.53-.35,1.92.2,2.92-.33s1.26-1.55,1.87-1.48.72.66,1.11,1.4c1.14,2.18,2.05,2.57,2.32,3.33C834.22,49.31,826.45,58.41,819,56.49Z"/><rect class="cls-31" x="726.26" y="119.3" width="8.78" height="28.75" rx="2.6" transform="translate(-7.07 47.17) rotate(-3.68)"/><rect class="cls-31" x="820.3" y="113.25" width="8.78" height="28.75" rx="2.6" transform="translate(-6.49 53.2) rotate(-3.68)"/><path class="cls-32" d="M722.46,88.84a16.84,16.84,0,0,0,.14,2.24l2.13,33.18c9.07.34,11.2-.6,11.4-1.55s-2-2.24-2.82-5.54a9.07,9.07,0,0,1-.19-2.94s10.13,8,16.26,10.37a22.87,22.87,0,0,0,11.8.61c3.78-.79,7.17-2.37,9-4.14a29.52,29.52,0,0,0,3.81-4.62,24.85,24.85,0,0,0,2.27-5.82l-3.51-55.94c-4.6.54-25.92,3.4-39.23,15.38C729.66,73.59,722.48,80,722.46,88.84ZM760,98.3c8,3.91,13.27,8.61,9.77,15.75S756,125.29,749,119.88c-9.1-6.95-14.4-21.13-13.9-23.46C735.92,92.64,752,94.38,760,98.3Z"/><path class="cls-33" d="M827.1,82.12C826,73.39,818,67.91,813.68,64.93,799,54.75,777.42,54.65,772.8,54.69l3.67,55.94a24.55,24.55,0,0,0,3,5.47,28.67,28.67,0,0,0,4.36,4.1,19.39,19.39,0,0,0,9.49,3A22.63,22.63,0,0,0,805,121c5.79-3.15,14.8-12.37,14.8-12.37a9.07,9.07,0,0,1,.19,2.94c-.34,3.37-2.48,4.8-2.08,5.86s2.56,1.6,11.49.08l-2.13-33.18A18.41,18.41,0,0,0,827.1,82.12Zm-22.63,34.4c-6.31,6.26-17,3.5-21.37-3.13s.25-12,7.66-16.88,23.18-8.69,24.48-5c.79,2.25-2.65,17-10.78,25Z"/><path class="cls-34" d="M773.31,85.43a29.94,29.94,0,0,0-18.17-8.7c-7.93-.73-18.52,1.53-24.21,9.3-7.87,10.74-6,29.32,7.24,37.94,12.15,7.93,29.23,4.45,37.61-8.29l-1.91-29.75Zm-3.55,28.62c-3.51,7.14-13.74,11.24-20.8,5.83-9.1-6.95-14.4-21.13-13.9-23.46.83-3.79,17-2,24.93,1.87S773.24,106.9,769.76,114.05Z"/><path class="cls-35" d="M817.53,80.46c-6.63-7-17.43-7.86-25.2-6.12a29.8,29.8,0,0,0-16.9,11l-.5.56,1.92,29.75c9.94,11.56,27.32,12.8,38.39,3.41C827.23,108.76,826.71,90.11,817.53,80.46Zm-13.07,35.86c-6.31,6.26-17,3.51-21.37-3.13s.25-12,7.66-16.87,23.18-8.69,24.48-5C816,93.52,812.59,108.25,804.46,116.32Z"/><polygon class="cls-36" points="766.13 55.14 772.03 52.5 778.26 54.36 782.46 117.79 776.9 124.68 770.75 118.84 766.13 55.14"/><circle class="cls-37" cx="776.25" cy="114.58" r="3.46"/><circle class="cls-38" cx="775.41" cy="101.57" r="3.46"/><circle class="cls-39" cx="774.68" cy="90.15" r="3.46"/><ellipse class="cls-40" cx="773.88" cy="77.62" rx="3.46" ry="3.2" transform="matrix(1, -0.06, 0.06, 1, -3.39, 49.83)"/><ellipse class="cls-41" cx="773.08" cy="67.08" rx="3.46" ry="2.85" transform="translate(-2.71 49.76) rotate(-3.68)"/><ellipse class="cls-42" cx="773.04" cy="62.5" rx="3.47" ry="2.29" transform="translate(-2.36 46.41) rotate(-3.43)"/><ellipse class="cls-43" cx="772.17" cy="52.93" rx="3.46" ry="1.33" transform="translate(-1.81 49.67) rotate(-3.68)"/><path class="cls-44" d="M744.71,62.87c-.31-6.12-8.53-6.61-13.79-14.27-4.41-6.45-5.95-16.85-2.19-23.73,1.37-2.5,3.45-4.56,2.78-5.47-.85-1.17-5.57.53-8.43,2.21-8.75,5.16-12.87,17.78-12.06,28.5.07.86,1.51,17.06,12.8,23.67A13.94,13.94,0,0,0,731.5,76c5.19-.23,9.73-3.91,11.83-8.18A9.39,9.39,0,0,0,744.71,62.87Z"/><path class="cls-45" d="M744.1,58.65c1.21-.29,2.14,1.84,5.94,2.94.64.19,1,.23,1.28.53,1.18,1.33-.87,4.55-2,6.35a20.17,20.17,0,0,1-5.39,6.25c-4,2.9-7.93,3.41-11.57,3.88-1.32.17-5.52.63-7.14-1.06-.1-.11-.16-.18-.54-.57-1.87-2-2.6-2.39-2.55-2.84.08-.7,2-.92,3.11-1.07,5.62-.66,8.69-1,11.14-2a10.94,10.94,0,0,0,5-3.66C744.14,63.58,742.36,59.07,744.1,58.65Z"/><path class="cls-6" d="M723.12,32.28a21,21,0,0,0,3.14,14.17l-4,2.16c-.21-.64-.41-1.3-.59-2a35.5,35.5,0,0,1-.87-13.42Z"/><path class="cls-44" d="M801,59.26c-.47-6.12,7.62-7.65,11.85-15.92.88-1.74,2.34,5.16,2.79,3.1.79-3.68,1.92-3.33,2.31-1.48.22,1.06.73,1.35,1.23,2.58.31.78.66-1,1.21-1.94.69-1.27-.33.65,2.94.08,2.37-.42-1,1.74,1.38,5,1.68,2.26,3.65-8.1,4.73-5.38,1.5,3.81,5-5.86,5.21-1.93,0,.86-1.18,16-11.56,24.06a14.07,14.07,0,0,1-7.34,3.14c-5.18.43-10.13-2.63-12.8-6.6A9.87,9.87,0,0,1,801,59.26Z"/><path class="cls-45" d="M801,55c-1.23-.14-1.88,2.1-5.5,3.68-.62.26-.95.35-1.2.71-1,1.46,1.44,4.4,2.81,6a20.37,20.37,0,0,0,6.14,5.5c4.31,2.37,8.31,2.37,12,2.37,1.32,0,5.55-.08,6.93-2,.09-.12.13-.2.43-.63,1.6-2.26,2.29-2.7,2.18-3.14-.17-.69-2.1-.65-3.2-.64-5.66.07-8.74.1-11.3-.57a10.89,10.89,0,0,1-5.45-3C801.64,59.88,802.83,55.18,801,55Z"/><path class="cls-6" d="M829.63,48.74c-.33,1.19-2.13,3.87-3.73,6.09a66.22,66.22,0,0,1-10.41,10.82l6.93-.18a8.71,8.71,0,0,0,.75-.86,35.27,35.27,0,0,0,6.06-12Z"/><path class="cls-46" d="M1245.54,388.84l-4.63-2.71a6.51,6.51,0,0,0-8.85,2.32l-31,52.85a6.46,6.46,0,0,0,2.32,8.83l4.63,2.7a6.49,6.49,0,0,0,8.85-2.31l31-52.86A6.45,6.45,0,0,0,1245.54,388.84Z"/><path class="cls-5" d="M1354.53,201.28c-25.87,21.45-42.63,41.9-52.21,56.72-7.93,12.27-17.64,27.26-25.06,45.86-9.23,23.19-12,27.83-19.63,40.63-6.74,11.36-18.44,25.74-32.58,43.07l13.59,8.06"/><path class="cls-5" d="M1354.53,201.28c-6.55,32.9-16.53,57.35-25.06,72.83-7,12.8-15.86,28.26-28.44,43.84-17.51,21.65-18.77,23.82-26.42,36.6-6.79,11.34-13.86,28.45-22.4,49.11l-13.58-8.05"/><path class="cls-47" d="M1235.43,401.7c4.09,4.5,13.14,12.8,25.45,11.48,4.69-.5,14.14-2.83,15.09-7.27a4.87,4.87,0,0,0-1.81-4.68c-3.1-2.32-8.08.91-11.93,1.94-4.9,1.32-11.07.84-21.24-10.79l-2.27-1.35c-15.11-3.35-17.16-7.75-18.35-12.68-.93-3.85-.46-9.77-4-11.37a4.94,4.94,0,0,0-5,.64c-3.45,3-1,12.36.81,16.7,4.72,11.42,16.35,15.38,22.27,16.81Z"/><ellipse class="cls-48" cx="1209.54" cy="446.63" rx="12.49" ry="12.46" transform="translate(-41.33 133.9) rotate(-6.23)"/><ellipse class="cls-49" cx="1209.57" cy="447.34" rx="5.99" ry="5.98" transform="translate(-41.4 133.9) rotate(-6.23)"/><path class="cls-6" d="M1232.34,384.9l9.41,3.22,107.13-178a293.35,293.35,0,0,0-27.2,29.52c-10.74,13.39-27.45,34.23-37.55,61.32-1.42,3.8-3,8.6-6.26,15.95a231.72,231.72,0,0,1-16.41,30.39,248.55,248.55,0,0,1-25,32.85Z"/></g></g></g></svg>